<?xml version="1.0" encoding="UTF-8" standalone="no"?>
<!DOCTYPE svg PUBLIC "-//W3C//DTD SVG 1.1//EN"
 "http://www.w3.org/Graphics/SVG/1.1/DTD/svg11.dtd">
<!-- Generated by graphviz version 4.0.0 (20220529.0937)
 -->
<!-- Pages: 1 -->
<svg width="68pt" height="188pt"
 viewBox="0.00 0.00 67.79 188.00" xmlns="http://www.w3.org/2000/svg" xmlns:xlink="http://www.w3.org/1999/xlink">
<g id="graph0" class="graph" transform="scale(1 1) rotate(0) translate(4 184)">
<polygon fill="white" stroke="transparent" points="-4,4 -4,-184 63.79,-184 63.79,4 -4,4"/>
<!-- Y ↓ -->
<g id="node1" class="node">
<title>Y ↓</title>
<ellipse fill="none" stroke="black" cx="29.9" cy="-18" rx="27" ry="18"/>
<text text-anchor="middle" x="29.9" y="-14.3" font-family="Times New Roman,serif" font-size="14.00">Y ↓</text>
</g>
<!-- Go ↓ -->
<g id="node2" class="node">
<title>Go ↓</title>
<ellipse fill="none" stroke="black" cx="29.9" cy="-162" rx="29.5" ry="18"/>
<text text-anchor="middle" x="29.9" y="-158.3" font-family="Times New Roman,serif" font-size="14.00">Go ↓</text>
</g>
<!-- DA ↓ -->
<g id="node3" class="node">
<title>DA ↓</title>
<ellipse fill="none" stroke="black" cx="29.9" cy="-90" rx="29.8" ry="18"/>
<text text-anchor="middle" x="29.9" y="-86.3" font-family="Times New Roman,serif" font-size="14.00">DA ↓</text>
</g>
<!-- Go ↓&#45;&gt;DA ↓ -->
<g id="edge1" class="edge">
<title>Go ↓&#45;&gt;DA ↓</title>
<path fill="none" stroke="black" d="M29.9,-143.7C29.9,-135.98 29.9,-126.71 29.9,-118.11"/>
<polygon fill="black" stroke="black" points="33.4,-118.1 29.9,-108.1 26.4,-118.1 33.4,-118.1"/>
</g>
<!-- DA ↓&#45;&gt;Y ↓ -->
<g id="edge2" class="edge">
<title>DA ↓&#45;&gt;Y ↓</title>
<path fill="none" stroke="black" d="M29.9,-71.7C29.9,-63.98 29.9,-54.71 29.9,-46.11"/>
<polygon fill="black" stroke="black" points="33.4,-46.1 29.9,-36.1 26.4,-46.1 33.4,-46.1"/>
</g>
</g>
</svg>
