<?xml version="1.0" encoding="UTF-8" standalone="no"?>
<!DOCTYPE svg PUBLIC "-//W3C//DTD SVG 1.1//EN"
 "http://www.w3.org/Graphics/SVG/1.1/DTD/svg11.dtd">
<!-- Generated by graphviz version 3.0.0 (20220226.1711)
 -->
<!-- Pages: 1 -->
<svg width="69pt" height="188pt"
 viewBox="0.00 0.00 69.09 188.00" xmlns="http://www.w3.org/2000/svg" xmlns:xlink="http://www.w3.org/1999/xlink">
<g id="graph0" class="graph" transform="scale(1 1) rotate(0) translate(4 184)">
<polygon fill="white" stroke="transparent" points="-4,4 -4,-184 65.09,-184 65.09,4 -4,4"/>
<!-- Y ↓ -->
<g id="node1" class="node">
<title>Y ↓</title>
<ellipse fill="none" stroke="black" cx="30.55" cy="-18" rx="27" ry="18"/>
<text text-anchor="middle" x="30.55" y="-14.3" font-family="Times,serif" font-size="14.00">Y ↓</text>
</g>
<!-- Go ↓ -->
<g id="node2" class="node">
<title>Go ↓</title>
<ellipse fill="none" stroke="black" cx="30.55" cy="-162" rx="29.5" ry="18"/>
<text text-anchor="middle" x="30.55" y="-158.3" font-family="Times,serif" font-size="14.00">Go ↓</text>
</g>
<!-- DA ↓ -->
<g id="node3" class="node">
<title>DA ↓</title>
<ellipse fill="none" stroke="black" cx="30.55" cy="-90" rx="30.59" ry="18"/>
<text text-anchor="middle" x="30.55" y="-86.3" font-family="Times,serif" font-size="14.00">DA ↓</text>
</g>
<!-- Go ↓&#45;&gt;DA ↓ -->
<g id="edge1" class="edge">
<title>Go ↓&#45;&gt;DA ↓</title>
<path fill="none" stroke="black" d="M30.55,-143.7C30.55,-135.98 30.55,-126.71 30.55,-118.11"/>
<polygon fill="black" stroke="black" points="34.05,-118.1 30.55,-108.1 27.05,-118.1 34.05,-118.1"/>
</g>
<!-- DA ↓&#45;&gt;Y ↓ -->
<g id="edge2" class="edge">
<title>DA ↓&#45;&gt;Y ↓</title>
<path fill="none" stroke="black" d="M30.55,-71.7C30.55,-63.98 30.55,-54.71 30.55,-46.11"/>
<polygon fill="black" stroke="black" points="34.05,-46.1 30.55,-36.1 27.05,-46.1 34.05,-46.1"/>
</g>
</g>
</svg>
